<?xml version="1.0" encoding="UTF-8" standalone="no"?>
<!-- Created with Inkscape (http://www.inkscape.org/) -->

<svg
   xmlns:dc="http://purl.org/dc/elements/1.1/"
   xmlns:cc="http://creativecommons.org/ns#"
   xmlns:rdf="http://www.w3.org/1999/02/22-rdf-syntax-ns#"
   xmlns:svg="http://www.w3.org/2000/svg"
   xmlns="http://www.w3.org/2000/svg"
   xmlns:sodipodi="http://sodipodi.sourceforge.net/DTD/sodipodi-0.dtd"
   xmlns:inkscape="http://www.inkscape.org/namespaces/inkscape"
   width="26.219999"
   height="74.739998"
   id="svg2"
   version="1.1"
   inkscape:version="0.47 r22583"
   sodipodi:docname="crotchet_rest_plain-svg.svg">
  <defs
     id="defs4">
    <inkscape:perspective
       sodipodi:type="inkscape:persp3d"
       inkscape:vp_x="0 : 526.18109 : 1"
       inkscape:vp_y="0 : 1000 : 0"
       inkscape:vp_z="744.09448 : 526.18109 : 1"
       inkscape:persp3d-origin="372.04724 : 350.78739 : 1"
       id="perspective10" />
  </defs>
  <sodipodi:namedview
     id="base"
     pagecolor="#ffffff"
     bordercolor="#666666"
     borderopacity="1.0"
     inkscape:pageopacity="0.0"
     inkscape:pageshadow="2"
     inkscape:zoom="0.35"
     inkscape:cx="375"
     inkscape:cy="618.78624"
     inkscape:document-units="px"
     inkscape:current-layer="layer1"
     showgrid="false"
     inkscape:window-width="892"
     inkscape:window-height="764"
     inkscape:window-x="0"
     inkscape:window-y="0"
     inkscape:window-maximized="0" />
  <metadata
     id="metadata7">
    <rdf:RDF>
      <cc:Work
         rdf:about="">
        <dc:format>image/svg+xml</dc:format>
        <dc:type
           rdf:resource="http://purl.org/dc/dcmitype/StillImage" />
        <dc:title />
      </cc:Work>
    </rdf:RDF>
  </metadata>
  <g
     inkscape:label="Layer 1"
     inkscape:groupmode="layer"
     id="layer1"
     transform="translate(0,-977.62215)">
    <g
       style="font-size:40px;font-style:normal;font-weight:normal;fill:#000000;fill-opacity:1;stroke:none;font-family:Bitstream Vera Sans"
       id="text2824"
       transform="matrix(0.99974987,0,0,0.99997083,-112.50645,534.65124)">
      <path
         d="m 138.76116,462.5307 c -6.84377,8.15627 -10.26565,14.25001 -10.26562,18.28125 -3e-5,3.89063 3.25778,9.72656 9.77343,17.50781 l -2.03906,2.88282 c -3.28128,-1.92189 -6.09377,-2.88283 -8.4375,-2.88282 -3.04689,-10e-6 -4.57033,1.82811 -4.57031,5.48438 -2e-5,3.74998 1.66404,7.47654 4.99219,11.17969 l -1.82813,2.74218 c -9.23438,-6.84377 -13.85157,-12.93751 -13.85156,-18.28125 -1e-5,-2.71876 0.93749,-4.875 2.8125,-6.46875 1.73436,-1.5 3.98436,-2.25 6.75,-2.25 1.78123,0 3.74998,0.46875 5.90625,1.40625 l -14.13281,-18.77343 c 6.70311,-5.90624 10.05467,-11.24998 10.05468,-16.03125 -10e-6,-3.79685 -2.27345,-8.57809 -6.82031,-14.34375 l 5.625,0 16.03125,19.54687"
         style="font-size:144px;font-family:musica;-inkscape-font-specification:musica"
         id="path2829" />
    </g>
  </g>
</svg>
