<?xml version="1.0" encoding="utf-8"?>
<!-- Generator: Adobe Illustrator 21.0.0, SVG Export Plug-In . SVG Version: 6.00 Build 0)  -->
<svg version="1.1" id="Layer_1" xmlns="http://www.w3.org/2000/svg" xmlns:xlink="http://www.w3.org/1999/xlink" x="0px" y="0px"
	 viewBox="0 0 512 512" style="enable-background:new 0 0 512 512; position:absolute; transform:translate(-50%,-50%);" height="40px" width="40px" xml:space="preserve">
<g>
	<path d="M507,94c-4.9-11.5-13-21.2-23.2-28.1c-5.1-3.4-10.7-6.2-16.8-8.1c-6-1.9-12.4-2.9-19-2.9H210.3c-8.8,0-17.3,1.8-24.9,5
		c-11.5,4.9-21.2,13-28.1,23.2c-3.4,5.1-6.2,10.7-8.1,16.8c-1.9,6-2.9,12.4-2.9,19v45.7c0,10.1,8.2,18.3,18.3,18.3
		c10.1,0,18.3-8.2,18.3-18.3v-45.7c0-3.8,0.8-7.4,2.1-10.7c2.1-4.9,5.6-9.1,10-12.1c2.2-1.5,4.6-2.6,7.2-3.4s5.3-1.2,8.2-1.2H448
		c3.8,0,7.4,0.8,10.7,2.1c4.9,2.1,9.1,5.6,12.1,10c1.5,2.2,2.6,4.6,3.4,7.2c0.8,2.6,1.2,5.3,1.2,8.2v274.3c0,3.8-0.8,7.4-2.1,10.7
		c-2.1,4.9-5.6,9.1-10,12.1c-2.2,1.5-4.6,2.6-7.2,3.4c-2.6,0.8-5.3,1.2-8.2,1.2H210.3c-3.8,0-7.4-0.8-10.7-2.1
		c-4.9-2.1-9.1-5.6-12.1-10c-1.5-2.2-2.6-4.6-3.4-7.2c-0.8-2.6-1.2-5.3-1.2-8.2v-45.7c0-10.1-8.2-18.3-18.3-18.3
		c-10.1,0-18.3,8.2-18.3,18.3v45.7c0,8.8,1.8,17.3,5,24.9c4.9,11.5,13,21.2,23.2,28.1c5.1,3.4,10.7,6.2,16.8,8.1
		c6,1.9,12.4,2.9,19,2.9H448c8.8,0,17.3-1.8,24.9-5c11.5-4.9,21.2-13,28.1-23.2c3.4-5.1,6.2-10.7,8.1-16.8c1.9-6,2.9-12.4,2.9-19
		V118.9C512,110.1,510.2,101.6,507,94z"/>
	<path d="M261.3,334.7c-7.1,7.1-7.1,18.7,0,25.9c7.2,6.9,18.8,6.9,25.9-0.2l91.4-91.4c3.4-3.4,5.4-8.1,5.4-12.9s-2-9.5-5.4-12.9
		l-91.4-91.4c-7.1-7.1-18.7-7.1-25.9,0c-7.1,7.1-7.1,18.7,0,25.9l60,60h-303C8.2,237.7,0,245.9,0,256c0,10.1,8.2,18.3,18.3,18.3
		h303.4L261.3,334.7z"/>
</g>
</svg>
