<?xml version="1.0" encoding="UTF-8" standalone="no"?>
<!-- Created with Inkscape (http://www.inkscape.org/) -->

<svg
   xmlns:dc="http://purl.org/dc/elements/1.1/"
   xmlns:cc="http://creativecommons.org/ns#"
   xmlns:rdf="http://www.w3.org/1999/02/22-rdf-syntax-ns#"
   xmlns:svg="http://www.w3.org/2000/svg"
   xmlns="http://www.w3.org/2000/svg"
   xmlns:sodipodi="http://sodipodi.sourceforge.net/DTD/sodipodi-0.dtd"
   xmlns:inkscape="http://www.inkscape.org/namespaces/inkscape"
   version="1.0"
   width="44"
   height="40.88326263428"
   id="svg2"
   sodipodi:version="0.32"
   inkscape:version="0.48.2 r9819"
   sodipodi:docname="Rests on stave 07 Quaver.svg"
   inkscape:output_extension="org.inkscape.output.svg.inkscape">
  <title
     id="title3065">Quaver on stave</title>
  <metadata
     id="metadata56">
    <rdf:RDF>
      <cc:Work
         rdf:about="">
        <dc:format>image/svg+xml</dc:format>
        <dc:type
           rdf:resource="http://purl.org/dc/dcmitype/StillImage" />
        <dc:title>Quaver on stave</dc:title>
      </cc:Work>
    </rdf:RDF>
  </metadata>
  <sodipodi:namedview
     inkscape:window-height="781"
     inkscape:window-width="1280"
     inkscape:pageshadow="2"
     inkscape:pageopacity="0.0"
     guidetolerance="10.0"
     gridtolerance="10.0"
     objecttolerance="10.0"
     borderopacity="1.0"
     bordercolor="#666666"
     pagecolor="#ffffff"
     id="base"
     showgrid="false"
     inkscape:zoom="13.67307704868"
     inkscape:cx="22"
     inkscape:cy="20.44163131714"
     inkscape:window-x="-4"
     inkscape:window-y="-4"
     inkscape:current-layer="svg2"
     fit-margin-top="2"
     fit-margin-left="2"
     fit-margin-right="2"
     fit-margin-bottom="2"
     inkscape:window-maximized="1" />
  <g
     id="g128"
     style="fill:#000000;fill-rule:evenodd;stroke:#000000;stroke-width:0;stroke-linecap:butt;stroke-linejoin:round;stroke-miterlimit:10"
     transform="matrix(1.8,0,0,1.8,-936.4468999969,-121.3397373657)">
    <path
       id="path130"
       style="fill:#000000;stroke:#000000"
       d="m 531.098,74.847 c -0.52,0.098 -0.918,0.457 -1.098,0.953 -0.039,0.16 -0.039,0.199 -0.039,0.418 0,0.301 0.019,0.461 0.16,0.699 0.199,0.399 0.617,0.719 1.094,0.836 0.5,0.141 1.336,0.02 2.293,-0.297 l 0.238,-0.082 -1.176,3.25 -1.156,3.246 c 0,0 0.039,0.02 0.102,0.063 0.117,0.078 0.316,0.137 0.457,0.137 0.238,0 0.539,-0.137 0.578,-0.258 0,-0.039 0.558,-1.934 1.234,-4.184 l 1.195,-4.125 -0.039,-0.058 c -0.097,-0.121 -0.296,-0.16 -0.418,-0.063 -0.039,0.039 -0.101,0.121 -0.14,0.18 -0.18,0.301 -0.637,0.836 -0.875,1.035 -0.219,0.18 -0.34,0.199 -0.539,0.121 -0.18,-0.098 -0.239,-0.199 -0.36,-0.738 -0.117,-0.535 -0.257,-0.778 -0.558,-0.977 -0.278,-0.179 -0.637,-0.238 -0.953,-0.156 z"
       inkscape:connector-curvature="0" />
  </g>

</svg>
